<svg width="800" height="600" viewBox="-40 -40 880 680" fill="none" xmlns="http://www.w3.org/2000/svg">
  <defs>
    <linearGradient id="bg" x1="-40" y1="-40" x2="840" y2="640" gradientUnits="userSpaceOnUse">
      <stop offset="0%" stop-color="#020617"/>
      <stop offset="100%" stop-color="#0f172a"/>
    </linearGradient>
    <linearGradient id="glow1" x1="0" y1="0" x2="1" y2="1">
      <stop offset="0%" stop-color="#10B981" stop-opacity="0.4"/>
      <stop offset="100%" stop-color="#10B981" stop-opacity="0"/>
    </linearGradient>
    <linearGradient id="glow2" x1="1" y1="0" x2="0" y2="1">
      <stop offset="0%" stop-color="#F59E0B" stop-opacity="0.25"/>
      <stop offset="100%" stop-color="#F59E0B" stop-opacity="0"/>
    </linearGradient>
    <linearGradient id="card" x1="0" y1="0" x2="0" y2="1">
      <stop offset="0%" stop-color="#1e293b" stop-opacity="0.9"/>
      <stop offset="100%" stop-color="#0f172a" stop-opacity="0.9"/>
    </linearGradient>
    <linearGradient id="bar" x1="0" y1="0" x2="1" y2="0">
      <stop offset="0%" stop-color="#10B981"/>
      <stop offset="100%" stop-color="#34D399"/>
    </linearGradient>
    <filter id="blur1" x="-50%" y="-50%" width="200%" height="200%">
      <feGaussianBlur in="SourceGraphic" stdDeviation="60"/>
    </filter>
    <filter id="blur2" x="-50%" y="-50%" width="200%" height="200%">
      <feGaussianBlur in="SourceGraphic" stdDeviation="40"/>
    </filter>
  </defs>

  <!-- Background (expanded to fill new viewBox) -->
  <rect x="-40" y="-40" width="880" height="680" fill="url(#bg)"/>

  <!-- Ambient glow -->
  <circle cx="620" cy="120" r="200" fill="url(#glow1)" filter="url(#blur1)"/>
  <circle cx="180" cy="480" r="180" fill="url(#glow2)" filter="url(#blur2)"/>

  <!-- Subtle grid -->
  <g stroke="#6EE7B7" stroke-opacity="0.06" stroke-width="1">
    <line x1="-40" y1="100" x2="840" y2="100"/>
    <line x1="-40" y1="200" x2="840" y2="200"/>
    <line x1="-40" y1="300" x2="840" y2="300"/>
    <line x1="-40" y1="400" x2="840" y2="400"/>
    <line x1="-40" y1="500" x2="840" y2="500"/>
    <line x1="200" y1="-40" x2="200" y2="640"/>
    <line x1="400" y1="-40" x2="400" y2="640"/>
    <line x1="600" y1="-40" x2="600" y2="640"/>
  </g>

  <!-- Dashboard card 1 - top left -->
  <g transform="translate(60, 50)">
    <rect width="280" height="170" rx="16" fill="url(#card)" stroke="#ffffff" stroke-opacity="0.08"/>
    <text x="20" y="36" fill="#94A3B8" font-family="system-ui, sans-serif" font-size="12" font-weight="500">WORKFLOW EFFICIENCY</text>
    <text x="20" y="68" fill="#FFFFFF" font-family="system-ui, sans-serif" font-size="28" font-weight="700">+47%</text>
    <text x="100" y="68" fill="#6EE7B7" font-family="system-ui, sans-serif" font-size="13">this quarter</text>
    <!-- Mini bar chart -->
    <rect x="20" y="90" width="24" height="55" rx="4" fill="#10B981" fill-opacity="0.2"/>
    <rect x="20" y="115" width="24" height="30" rx="4" fill="#10B981" fill-opacity="0.5"/>
    <rect x="52" y="90" width="24" height="55" rx="4" fill="#10B981" fill-opacity="0.2"/>
    <rect x="52" y="105" width="24" height="40" rx="4" fill="#10B981" fill-opacity="0.5"/>
    <rect x="84" y="90" width="24" height="55" rx="4" fill="#10B981" fill-opacity="0.2"/>
    <rect x="84" y="100" width="24" height="45" rx="4" fill="#10B981" fill-opacity="0.6"/>
    <rect x="116" y="90" width="24" height="55" rx="4" fill="#10B981" fill-opacity="0.2"/>
    <rect x="116" y="95" width="24" height="50" rx="4" fill="#10B981" fill-opacity="0.7"/>
    <rect x="148" y="90" width="24" height="55" rx="4" fill="#10B981" fill-opacity="0.2"/>
    <rect x="148" y="85" width="24" height="60" rx="4" fill="#10B981" fill-opacity="0.85"/>
    <!-- Trend arrow -->
    <polygon points="220,100 240,85 240,92 260,92 260,108 240,108 240,115" fill="#34D399" fill-opacity="0.6"/>
  </g>

  <!-- Dashboard card 2 - top right -->
  <g transform="translate(460, 30)">
    <rect width="300" height="150" rx="16" fill="url(#card)" stroke="#ffffff" stroke-opacity="0.08"/>
    <text x="20" y="36" fill="#94A3B8" font-family="system-ui, sans-serif" font-size="12" font-weight="500">AI TOOLS DEPLOYED</text>
    <text x="20" y="72" fill="#FFFFFF" font-family="system-ui, sans-serif" font-size="32" font-weight="700">12</text>
    <text x="62" y="72" fill="#6EE7B7" font-family="system-ui, sans-serif" font-size="13">active</text>
    <!-- Progress dots -->
    <circle cx="30" cy="105" r="8" fill="#10B981"/>
    <circle cx="55" cy="105" r="8" fill="#10B981"/>
    <circle cx="80" cy="105" r="8" fill="#10B981"/>
    <circle cx="105" cy="105" r="8" fill="#10B981" fill-opacity="0.7"/>
    <circle cx="130" cy="105" r="8" fill="#10B981" fill-opacity="0.5"/>
    <circle cx="155" cy="105" r="8" fill="#10B981" fill-opacity="0.3"/>
    <text x="20" y="135" fill="#64748B" font-family="system-ui, sans-serif" font-size="11">Quoting · Intake · Reporting · Training</text>
  </g>

  <!-- Center: connected nodes / workflow -->
  <g transform="translate(200, 260)">
    <!-- Connection lines -->
    <line x1="60" y1="60" x2="200" y2="30" stroke="#10B981" stroke-opacity="0.3" stroke-width="2" stroke-dasharray="6 4"/>
    <line x1="200" y1="30" x2="340" y2="70" stroke="#10B981" stroke-opacity="0.3" stroke-width="2" stroke-dasharray="6 4"/>
    <line x1="60" y1="60" x2="200" y2="120" stroke="#F59E0B" stroke-opacity="0.2" stroke-width="2" stroke-dasharray="6 4"/>
    <line x1="200" y1="120" x2="340" y2="70" stroke="#F59E0B" stroke-opacity="0.2" stroke-width="2" stroke-dasharray="6 4"/>
    <line x1="200" y1="30" x2="200" y2="120" stroke="#10B981" stroke-opacity="0.15" stroke-width="1.5"/>

    <!-- Nodes -->
    <circle cx="60" cy="60" r="22" fill="#0f172a" stroke="#10B981" stroke-width="2"/>
    <text x="60" y="65" fill="#6EE7B7" font-family="system-ui, sans-serif" font-size="18" text-anchor="middle" font-weight="600">AI</text>

    <circle cx="200" cy="30" r="18" fill="#0f172a" stroke="#34D399" stroke-width="1.5"/>
    <text x="200" y="24" fill="#94A3B8" font-family="system-ui, sans-serif" font-size="8" text-anchor="middle">CRM</text>
    <text x="200" y="36" fill="#94A3B8" font-family="system-ui, sans-serif" font-size="8" text-anchor="middle">DATA</text>

    <circle cx="340" cy="70" r="18" fill="#0f172a" stroke="#34D399" stroke-width="1.5"/>
    <text x="340" y="64" fill="#94A3B8" font-family="system-ui, sans-serif" font-size="8" text-anchor="middle">TEAM</text>
    <text x="340" y="76" fill="#94A3B8" font-family="system-ui, sans-serif" font-size="8" text-anchor="middle">OPS</text>

    <circle cx="200" cy="120" r="18" fill="#0f172a" stroke="#F59E0B" stroke-opacity="0.5" stroke-width="1.5"/>
    <text x="200" y="114" fill="#94A3B8" font-family="system-ui, sans-serif" font-size="8" text-anchor="middle">AUTO</text>
    <text x="200" y="126" fill="#94A3B8" font-family="system-ui, sans-serif" font-size="8" text-anchor="middle">FLOW</text>
  </g>

  <!-- Bottom card - team training -->
  <g transform="translate(80, 430)">
    <rect width="320" height="130" rx="16" fill="url(#card)" stroke="#ffffff" stroke-opacity="0.08"/>
    <text x="20" y="36" fill="#94A3B8" font-family="system-ui, sans-serif" font-size="12" font-weight="500">TEAM AI CONFIDENCE</text>
    <!-- Progress bars -->
    <rect x="20" y="52" width="280" height="8" rx="4" fill="#1e293b"/>
    <rect x="20" y="52" width="240" height="8" rx="4" fill="url(#bar)"/>
    <text x="20" y="80" fill="#CBD5E1" font-family="system-ui, sans-serif" font-size="11">Leadership</text>
    <text x="265" y="80" fill="#6EE7B7" font-family="system-ui, sans-serif" font-size="11">86%</text>

    <rect x="20" y="90" width="280" height="8" rx="4" fill="#1e293b"/>
    <rect x="20" y="90" width="196" height="8" rx="4" fill="url(#bar)" fill-opacity="0.7"/>
    <text x="20" y="118" fill="#CBD5E1" font-family="system-ui, sans-serif" font-size="11">Operations</text>
    <text x="265" y="118" fill="#6EE7B7" font-family="system-ui, sans-serif" font-size="11">70%</text>
  </g>

  <!-- Bottom right card - time saved -->
  <g transform="translate(460, 400)">
    <rect width="280" height="160" rx="16" fill="url(#card)" stroke="#ffffff" stroke-opacity="0.08"/>
    <text x="20" y="36" fill="#94A3B8" font-family="system-ui, sans-serif" font-size="12" font-weight="500">HOURS SAVED / WEEK</text>
    <text x="20" y="80" fill="#FFFFFF" font-family="system-ui, sans-serif" font-size="44" font-weight="700">38</text>
    <text x="85" y="80" fill="#6EE7B7" font-family="system-ui, sans-serif" font-size="14">hrs</text>
    <text x="20" y="105" fill="#64748B" font-family="system-ui, sans-serif" font-size="12">across automated workflows</text>
    <!-- Mini sparkline -->
    <polyline points="20,135 50,130 80,125 110,128 140,118 170,112 200,105 230,95" fill="none" stroke="#10B981" stroke-width="2" stroke-linecap="round"/>
    <circle cx="230" cy="95" r="4" fill="#10B981"/>
  </g>
</svg>